<svg id="visual" viewBox="0 0 900 600" width="900" height="600" xmlns="http://www.w3.org/2000/svg" xmlns:xlink="http://www.w3.org/1999/xlink" version="1.1"><rect x="0" y="0" width="900" height="600" fill="#2f2d2d"></rect><path d="M0 384L150 406L300 311L450 345L600 416L750 307L900 373L900 601L750 601L600 601L450 601L300 601L150 601L0 601Z" fill="#4c4c4c"></path><path d="M0 355L150 386L300 354L450 419L600 371L750 450L900 424L900 601L750 601L600 601L450 601L300 601L150 601L0 601Z" fill="#3d3d3d"></path><path d="M0 431L150 492L300 412L450 468L600 455L750 410L900 482L900 601L750 601L600 601L450 601L300 601L150 601L0 601Z" fill="#2e2e2e"></path><path d="M0 506L150 494L300 525L450 457L600 530L750 506L900 479L900 601L750 601L600 601L450 601L300 601L150 601L0 601Z" fill="#202020"></path><path d="M0 548L150 516L300 511L450 527L600 514L750 528L900 548L900 601L750 601L600 601L450 601L300 601L150 601L0 601Z" fill="#131313"></path></svg>