<svg id="visual" viewBox="0 0 2000 2000" width="2000" height="2000" xmlns="http://www.w3.org/2000/svg" xmlns:xlink="http://www.w3.org/1999/xlink" version="1.1"><path d="M0 221L37 214.3C74 207.7 148 194.3 222 187.7C296 181 370 181 444.2 184.3C518.3 187.7 592.7 194.3 666.8 191C741 187.7 815 174.3 889 174.3C963 174.3 1037 187.7 1111 211C1185 234.3 1259 267.7 1333.2 267.7C1407.3 267.7 1481.7 234.3 1555.8 217.7C1630 201 1704 201 1778 197.7C1852 194.3 1926 187.7 1963 184.3L2000 181L2000 0L1963 0C1926 0 1852 0 1778 0C1704 0 1630 0 1555.8 0C1481.7 0 1407.3 0 1333.2 0C1259 0 1185 0 1111 0C1037 0 963 0 889 0C815 0 741 0 666.8 0C592.7 0 518.3 0 444.2 0C370 0 296 0 222 0C148 0 74 0 37 0L0 0Z" fill="#1e1e1e"></path><path d="M0 461L37 464.3C74 467.7 148 474.3 222 464.3C296 454.3 370 427.7 444.2 431C518.3 434.3 592.7 467.7 666.8 474.3C741 481 815 461 889 467.7C963 474.3 1037 507.7 1111 534.3C1185 561 1259 581 1333.2 591C1407.3 601 1481.7 601 1555.8 597.7C1630 594.3 1704 587.7 1778 571C1852 554.3 1926 527.7 1963 514.3L2000 501L2000 179L1963 182.3C1926 185.7 1852 192.3 1778 195.7C1704 199 1630 199 1555.8 215.7C1481.7 232.3 1407.3 265.7 1333.2 265.7C1259 265.7 1185 232.3 1111 209C1037 185.7 963 172.3 889 172.3C815 172.3 741 185.7 666.8 189C592.7 192.3 518.3 185.7 444.2 182.3C370 179 296 179 222 185.7C148 192.3 74 205.7 37 212.3L0 219Z" fill="#212720"></path><path d="M0 661L37 667.7C74 674.3 148 687.7 222 674.3C296 661 370 621 444.2 617.7C518.3 614.3 592.7 647.7 666.8 647.7C741 647.7 815 614.3 889 627.7C963 641 1037 701 1111 734.3C1185 767.7 1259 774.3 1333.2 771C1407.3 767.7 1481.7 754.3 1555.8 741C1630 727.7 1704 714.3 1778 711C1852 707.7 1926 714.3 1963 717.7L2000 721L2000 499L1963 512.3C1926 525.7 1852 552.3 1778 569C1704 585.7 1630 592.3 1555.8 595.7C1481.7 599 1407.3 599 1333.2 589C1259 579 1185 559 1111 532.3C1037 505.7 963 472.3 889 465.7C815 459 741 479 666.8 472.3C592.7 465.7 518.3 432.3 444.2 429C370 425.7 296 452.3 222 462.3C148 472.3 74 465.7 37 462.3L0 459Z" fill="#242f22"></path><path d="M0 861L37 874.3C74 887.7 148 914.3 222 904.3C296 894.3 370 847.7 444.2 834.3C518.3 821 592.7 841 666.8 844.3C741 847.7 815 834.3 889 854.3C963 874.3 1037 927.7 1111 961C1185 994.3 1259 1007.7 1333.2 991C1407.3 974.3 1481.7 927.7 1555.8 917.7C1630 907.7 1704 934.3 1778 931C1852 927.7 1926 894.3 1963 877.7L2000 861L2000 719L1963 715.7C1926 712.3 1852 705.7 1778 709C1704 712.3 1630 725.7 1555.8 739C1481.7 752.3 1407.3 765.7 1333.2 769C1259 772.3 1185 765.7 1111 732.3C1037 699 963 639 889 625.7C815 612.3 741 645.7 666.8 645.7C592.7 645.7 518.3 612.3 444.2 615.7C370 619 296 659 222 672.3C148 685.7 74 672.3 37 665.7L0 659Z" fill="#263824"></path><path d="M0 1341L37 1327.7C74 1314.3 148 1287.7 222 1281C296 1274.3 370 1287.7 444.2 1287.7C518.3 1287.7 592.7 1274.3 666.8 1277.7C741 1281 815 1301 889 1317.7C963 1334.3 1037 1347.7 1111 1384.3C1185 1421 1259 1481 1333.2 1487.7C1407.3 1494.3 1481.7 1447.7 1555.8 1417.7C1630 1387.7 1704 1374.3 1778 1377.7C1852 1381 1926 1401 1963 1411L2000 1421L2000 859L1963 875.7C1926 892.3 1852 925.7 1778 929C1704 932.3 1630 905.7 1555.8 915.7C1481.7 925.7 1407.3 972.3 1333.2 989C1259 1005.7 1185 992.3 1111 959C1037 925.7 963 872.3 889 852.3C815 832.3 741 845.7 666.8 842.3C592.7 839 518.3 819 444.2 832.3C370 845.7 296 892.3 222 902.3C148 912.3 74 885.7 37 872.3L0 859Z" fill="#284126"></path><path d="M0 1841L37 1847.7C74 1854.3 148 1867.7 222 1877.7C296 1887.7 370 1894.3 444.2 1897.7C518.3 1901 592.7 1901 666.8 1887.7C741 1874.3 815 1847.7 889 1844.3C963 1841 1037 1861 1111 1874.3C1185 1887.7 1259 1894.3 1333.2 1887.7C1407.3 1881 1481.7 1861 1555.8 1857.7C1630 1854.3 1704 1867.7 1778 1871C1852 1874.3 1926 1867.7 1963 1864.3L2000 1861L2000 1419L1963 1409C1926 1399 1852 1379 1778 1375.7C1704 1372.3 1630 1385.7 1555.8 1415.7C1481.7 1445.7 1407.3 1492.3 1333.2 1485.7C1259 1479 1185 1419 1111 1382.3C1037 1345.7 963 1332.3 889 1315.7C815 1299 741 1279 666.8 1275.7C592.7 1272.3 518.3 1285.7 444.2 1285.7C370 1285.7 296 1272.3 222 1279C148 1285.7 74 1312.3 37 1325.7L0 1339Z" fill="#2a4a27"></path><path d="M0 2001L37 2001C74 2001 148 2001 222 2001C296 2001 370 2001 444.2 2001C518.3 2001 592.7 2001 666.8 2001C741 2001 815 2001 889 2001C963 2001 1037 2001 1111 2001C1185 2001 1259 2001 1333.2 2001C1407.3 2001 1481.7 2001 1555.8 2001C1630 2001 1704 2001 1778 2001C1852 2001 1926 2001 1963 2001L2000 2001L2000 1859L1963 1862.3C1926 1865.7 1852 1872.3 1778 1869C1704 1865.7 1630 1852.3 1555.8 1855.7C1481.7 1859 1407.3 1879 1333.2 1885.7C1259 1892.3 1185 1885.7 1111 1872.3C1037 1859 963 1839 889 1842.3C815 1845.7 741 1872.3 666.8 1885.7C592.7 1899 518.3 1899 444.2 1895.7C370 1892.3 296 1885.7 222 1875.7C148 1865.7 74 1852.3 37 1845.7L0 1839Z" fill="#2b5329"></path></svg>