<?xml version="1.0" standalone="no"?>
<!DOCTYPE svg PUBLIC "-//W3C//DTD SVG 1.0//EN" "http://www.w3.org/TR/2001/REC-SVG-20010904/DTD/svg10.dtd">
<svg xmlns="http://www.w3.org/2000/svg" xmlns:xlink="http://www.w3.org/1999/xlink" id="body_1" width="64" height="64">

<g transform="matrix(0.053333335 0 0 0.053333335 0 0)">
	<g>
        <path d="M0 0L1200 0L1200 1200L0 1200L0 0zM587.45 175.55C 504.25 178.4 421.99 205.79 354.17 254.15C 280.99 305.5 224.99 380.68 196.46 465.38C 181.13 512.17 172.52 561.62 175.32 610.97C 176.68 648.75 182.32 686.47 193.36 722.67C 216.24 797.9 260.24 866.72 319.44 918.53C 371.13 964.07 433.84 997.31 501.01 1012.99C 571.97 1030.83 647.38 1028 717.71 1008.53C 743.58 1000.34 769.44 991.43 793.36 978.43C 855.47 947.56 908.14 899.46 947.89 842.92C 992.2 780 1019.1 704.83 1024.03 628C 1026.01 604 1023.89 579.92 1021.92 556C 1011.45 450.07 958.59 349.41 878.19 279.81C 799.08 210.19 692.94 171.25 587.45 175.55z" stroke="none" fill="#2E2C2D" fill-rule="nonzero" />
        <path d="M622.08 381C 627.58 366.54 646.44 359.36 660.03 366.98C 671.51 372.57 677.34 386.53 673.6 398.65C 650.78 486.1 627.82 573.54 604.92 660.98C 586.18 661.02 567.45 661.06 548.72 660.94C 549.56 656.23 550.6 651.57 551.87 646.97C 571.99 570.98 591.61 494.86 611.75 418.87C 615.09 406.23 617.68 393.34 622.08 381z" stroke="none" fill="#2E2C2D" fill-rule="nonzero" />
        <path d="M445.6 432.55C 458.65 430.09 472.5 439.6 475.54 452.42C 478.33 461.1 476.29 471.22 469.62 477.65C 452.7 497.32 432.92 514.29 415.72 533.72C 393.62 555.42 372.67 578.23 350.64 600C 370.68 620.45 391.18 640.44 411.25 660.86C 385.9 660.79 360.5 661.62 335.17 660.68C 323.15 651.96 314.36 639.55 303.11 629.91C 293.48 621.45 282.51 611.4 284.08 597.13C 284.37 586.29 293.45 579.42 300.15 572.15C 325.92 544.61 353.42 518.75 379.62 491.64C 393.7 476.06 409.11 461.78 423.67 446.67C 429.89 440.66 436.43 433.4 445.6 432.55z" stroke="none" fill="#2E2C2D" fill-rule="nonzero" />
        <path d="M736.01 436.99C 743.47 432.48 753.32 431.71 761.11 435.88C 769.56 440.82 775.86 448.45 782.77 455.23C 823.22 495.78 863.76 536.25 904.27 576.74C 911.17 583.47 917.25 592.36 915.6 602.59C 915.22 611.15 909.17 617.74 903.75 623.74C 891.52 636.21 878.94 648.34 866.75 660.85C 841.12 661.13 815.49 661.02 789.86 660.93C 808.86 639.82 829.54 620.34 849.35 600C 817.56 567.68 785.09 536.02 753.37 503.64C 744.44 492.62 732.46 484.28 724.74 472.28C 718.87 460.06 723.82 443.31 736.01 436.99z" stroke="none" fill="#2E2C2D" fill-rule="nonzero" />
        <path d="M376.24 679.33C 402.75 679.7 430.79 675.36 455.99 685.93C 470.83 691.55 482.64 704.27 487.6 719.3C 492.56 732.61 492.36 747.03 491.95 761.02C 490.77 783.41 478.09 805.9 457.02 815.02C 431.58 826.29 402.89 820.72 376.01 821.98C 376.14 774.43 375.69 726.87 376.24 679.33zM415.02 709.58C 414.99 737.09 414.94 764.59 415.05 792.1C 421.5 790.98 428.07 790.29 434.34 788.37C 446.13 783.84 452 770.88 452.87 758.97C 453.15 746.04 454.02 731.32 445.49 720.52C 438.08 711.64 425.84 710.01 415.02 709.58z" stroke="none" fill="#2E2C2D" fill-rule="nonzero" />
        <path d="M550.01 679C 562.67 678.99 575.33 678.98 587.99 679C 587.97 709.01 588.04 739.01 588.05 769.02C 588.24 783.32 585.45 798.67 575.68 809.71C 569.41 817.62 559.84 822.54 549.88 823.86C 527.19 828.77 501.05 818.9 490.57 797.44C 499.14 791.19 507.45 784.58 516.31 778.75C 519.73 782.89 522.52 788.09 527.65 790.37C 533.04 792.64 540.15 792.94 544.56 788.55C 550.18 782.14 549.46 772.92 549.97 765.02C 550.18 736.35 549.87 707.67 550.01 679z" stroke="none" fill="#2E2C2D" fill-rule="nonzero" />
        <path d="M656.51 683.76C 665.94 682.47 675.49 682.99 684.99 682.98C 685.03 719.3 684.96 755.63 685.01 791.97C 693.33 791.98 701.67 792.01 710.02 792.04C 709.97 802.01 709.97 812 710.02 821.99C 679 822.01 647.99 822.01 616.98 821.99C 617.01 812.01 617.01 802.04 616.99 792.07C 626.88 791.99 636.78 792.05 646.68 791.78C 647.31 767.86 646.91 743.94 646.99 720.03C 637.98 720 628.98 719.99 619.98 719.98C 619.98 712.08 620 704.2 620.05 696.32C 626.27 694.85 632.51 693.4 638.62 691.48C 644.77 689.35 650.31 685.73 656.51 683.76z" stroke="none" fill="#2E2C2D" fill-rule="nonzero" />
        <path d="M740.07 683.02C 767.73 682.97 795.39 682.99 823.06 683.01C 823 693.56 822.96 704.12 822.75 714.69C 806.21 715.09 789.68 715.05 773.16 715.01C 772.55 721.32 771.91 727.63 771.2 733.94C 783.08 731.21 795.85 731.61 806.95 737.09C 818.55 742.28 827.05 753.76 828.5 766.4C 829.2 774.34 829.9 782.62 827.36 790.34C 823.86 802.27 815.05 812.31 804.23 818.24C 787.6 826.34 767.58 827.16 750.32 820.55C 741.06 817.33 733.01 811.56 725.56 805.34C 731.12 797.27 736.56 789.12 742.14 781.07C 750.35 786.57 758.53 794.03 769.03 793.92C 775.79 795.08 783.1 792.8 787.83 787.82C 793.6 779.23 792.16 765.63 782.38 760.61C 772.59 756.9 761.26 758.99 752.78 764.9C 747.54 761.49 742.24 758.15 736.93 754.86C 737.39 730.89 738.86 706.96 740.07 683.02z" stroke="none" fill="#2E2C2D" fill-rule="nonzero" />
	</g>
	<g>
        <path d="M587.45 175.55C 692.94 171.25 799.08 210.19 878.19 279.81C 958.59 349.41 1011.45 450.07 1021.92 556C 1023.89 579.92 1026.01 604 1024.03 628C 1019.1 704.83 992.2 780 947.89 842.92C 908.14 899.46 855.47 947.56 793.36 978.43C 769.44 991.43 743.58 1000.34 717.71 1008.53C 647.38 1028 571.97 1030.83 501.01 1012.99C 433.84 997.31 371.13 964.07 319.44 918.53C 260.24 866.72 216.24 797.9 193.36 722.67C 182.32 686.47 176.68 648.75 175.32 610.97C 172.52 561.62 181.13 512.17 196.46 465.38C 224.99 380.68 280.99 305.5 354.17 254.15C 421.99 205.79 504.25 178.4 587.45 175.55zM622.08 381C 617.68 393.34 615.09 406.23 611.75 418.87C 591.61 494.86 571.99 570.98 551.87 646.97C 550.6 651.57 549.56 656.23 548.72 660.94C 567.45 661.06 586.18 661.02 604.92 660.98C 627.82 573.54 650.78 486.1 673.6 398.65C 677.34 386.53 671.51 372.57 660.03 366.98C 646.44 359.36 627.58 366.54 622.08 381zM445.6 432.55C 436.43 433.4 429.89 440.66 423.67 446.67C 409.11 461.78 393.7 476.06 379.62 491.64C 353.42 518.75 325.92 544.61 300.15 572.15C 293.45 579.42 284.37 586.29 284.08 597.13C 282.51 611.4 293.48 621.45 303.11 629.91C 314.36 639.55 323.15 651.96 335.17 660.68C 360.5 661.62 385.9 660.79 411.25 660.86C 391.18 640.44 370.68 620.45 350.64 600C 372.67 578.23 393.62 555.42 415.72 533.72C 432.92 514.29 452.7 497.32 469.62 477.65C 476.29 471.22 478.33 461.1 475.54 452.42C 472.5 439.6 458.65 430.09 445.6 432.55zM736.01 436.99C 723.82 443.31 718.87 460.06 724.74 472.28C 732.46 484.28 744.44 492.62 753.37 503.64C 785.09 536.02 817.56 567.68 849.35 600C 829.54 620.34 808.86 639.82 789.86 660.93C 815.49 661.02 841.12 661.13 866.75 660.85C 878.94 648.34 891.52 636.21 903.75 623.74C 909.17 617.74 915.22 611.15 915.6 602.59C 917.25 592.36 911.17 583.47 904.27 576.74C 863.76 536.25 823.22 495.78 782.77 455.23C 775.86 448.45 769.56 440.82 761.11 435.88C 753.32 431.71 743.47 432.48 736.01 436.99zM376.24 679.33C 375.69 726.87 376.14 774.43 376.01 821.98C 402.89 820.72 431.58 826.29 457.02 815.02C 478.09 805.9 490.77 783.41 491.95 761.02C 492.36 747.03 492.56 732.61 487.6 719.3C 482.64 704.27 470.83 691.55 455.99 685.93C 430.79 675.36 402.75 679.7 376.24 679.33zM550.01 679C 549.87 707.67 550.18 736.35 549.97 765.02C 549.46 772.92 550.18 782.14 544.56 788.55C 540.15 792.94 533.04 792.64 527.65 790.37C 522.52 788.09 519.73 782.89 516.31 778.75C 507.45 784.58 499.14 791.19 490.57 797.44C 501.05 818.9 527.19 828.77 549.88 823.86C 559.84 822.54 569.41 817.62 575.68 809.71C 585.45 798.67 588.24 783.32 588.05 769.02C 588.04 739.01 587.97 709.01 587.99 679C 575.33 678.98 562.67 678.99 550.01 679zM656.51 683.76C 650.31 685.73 644.77 689.35 638.62 691.48C 632.51 693.4 626.27 694.85 620.05 696.32C 620 704.2 619.98 712.08 619.98 719.98C 628.98 719.99 637.98 720 646.99 720.03C 646.91 743.94 647.31 767.86 646.68 791.78C 636.78 792.05 626.88 791.99 616.99 792.07C 617.01 802.04 617.01 812.01 616.98 821.99C 647.99 822.01 679 822.01 710.02 821.99C 709.97 812 709.97 802.01 710.02 792.04C 701.67 792.01 693.33 791.98 685.01 791.97C 684.96 755.63 685.03 719.3 684.99 682.98C 675.49 682.99 665.94 682.47 656.51 683.76zM740.07 683.02C 738.86 706.96 737.39 730.89 736.93 754.86C 742.24 758.15 747.54 761.49 752.78 764.9C 761.26 758.99 772.59 756.9 782.38 760.61C 792.16 765.63 793.6 779.23 787.83 787.82C 783.1 792.8 775.79 795.08 769.03 793.92C 758.53 794.03 750.35 786.57 742.14 781.07C 736.56 789.12 731.12 797.27 725.56 805.34C 733.01 811.56 741.06 817.33 750.32 820.55C 767.58 827.16 787.6 826.34 804.23 818.24C 815.05 812.31 823.86 802.27 827.36 790.34C 829.9 782.62 829.2 774.34 828.5 766.4C 827.05 753.76 818.55 742.28 806.95 737.09C 795.85 731.61 783.08 731.21 771.2 733.94C 771.91 727.63 772.55 721.32 773.16 715.01C 789.68 715.05 806.21 715.09 822.75 714.69C 822.96 704.12 823 693.56 823.06 683.01C 795.39 682.99 767.73 682.97 740.07 683.02z" stroke="none" fill="#326496" fill-rule="nonzero" />
        <path d="M415.02 709.58C 425.84 710.01 438.08 711.64 445.49 720.52C 454.02 731.32 453.15 746.04 452.87 758.97C 452 770.88 446.13 783.84 434.34 788.37C 428.07 790.29 421.5 790.98 415.05 792.1C 414.94 764.59 414.99 737.09 415.02 709.58z" stroke="none" fill="#326496" fill-rule="nonzero" />
	</g>
</g>
</svg>