<svg id="visual" viewBox="0 0 900 600" width="900" height="600" xmlns="http://www.w3.org/2000/svg" xmlns:xlink="http://www.w3.org/1999/xlink" version="1.1"><rect x="0" y="0" width="900" height="600" fill="#1e1e1e"></rect><path d="M0 260L113 323L225 267L338 218L450 281L563 357L675 185L788 281L900 287L900 601L788 601L675 601L563 601L450 601L338 601L225 601L113 601L0 601Z" fill="#0e6b0e"></path><path d="M0 375L113 395L225 318L338 380L450 330L563 254L675 254L788 372L900 421L900 601L788 601L675 601L563 601L450 601L338 601L225 601L113 601L0 601Z" fill="#107810"></path><path d="M0 478L113 386L225 420L338 351L450 474L563 444L675 402L788 380L900 471L900 601L788 601L675 601L563 601L450 601L338 601L225 601L113 601L0 601Z" fill="#128612"></path><path d="M0 484L113 440L225 446L338 520L450 525L563 456L675 454L788 530L900 473L900 601L788 601L675 601L563 601L450 601L338 601L225 601L113 601L0 601Z" fill="#149414"></path></svg>